<?xml version="1.0" encoding="utf-8"?>
<!-- Generator: Adobe Illustrator 26.0.3, SVG Export Plug-In . SVG Version: 6.00 Build 0)  -->
<svg version="1.1" id="Layer_1" xmlns="http://www.w3.org/2000/svg" xmlns:xlink="http://www.w3.org/1999/xlink" x="0px" y="0px"
	 viewBox="0 0 380 100" style="enable-background:new 0 0 380 100;" xml:space="preserve">
<style type="text/css">
	.st0{fill:#477FB9;}
	.st1{fill:#FFFFFF;}
	.st2{fill:#95CDDD;}
	.st3{fill:#28AAE2;}
</style>
<rect x="65.8" y="51.47" className="st0" width="306.33" height="25.39"/>
<g>
	<polygon className="st0" points="150.78,43.07 169.82,43.07 169.82,40.73 153.27,40.73 153.27,26.29 164.05,26.29 164.05,23.94 
		153.27,23.94 153.27,10.36 169.82,10.36 169.82,8.02 150.78,8.02 	"/>
	<rect x="100.65" y="8.27" className="st0" width="2.49" height="35.05"/>
	<path className="st0" d="M129.51,38.38L116.49,7.75l-2.32,0.59l15.35,35.58L144.8,8.17c0,0-2.13-0.5-2.32-0.54L129.51,38.38z"/>
	<path className="st0" d="M85.63,24.95c1.28-1.82,1.92-3.83,1.92-6.03c0-1.38-0.29-2.71-0.85-3.99c-0.57-1.28-1.36-2.4-2.38-3.38
		c-1.02-0.98-2.22-1.76-3.59-2.37c-1.38-0.6-2.86-0.9-4.45-0.9H65.8v35.04h2.5V29.65h9.4l11.21,13.66h3.17L80.25,28.85
		C82.55,28.08,84.34,26.77,85.63,24.95z M76.28,27.31H68.3v-16.7h7.98c1.25,0,2.4,0.22,3.46,0.66c1.06,0.44,1.98,1.05,2.78,1.81
		c0.79,0.76,1.41,1.65,1.87,2.66c0.45,1.01,0.68,2.08,0.68,3.22s-0.23,2.21-0.68,3.22c-0.45,1.01-1.08,1.89-1.87,2.66
		c-0.8,0.77-1.72,1.37-2.78,1.81C78.68,27.1,77.53,27.31,76.28,27.31z"/>
	<path className="st0" d="M196.92,36.14c-1.02-1.24-2.04-2.48-3.06-3.72c-1.02-1.24-1.98-2.43-2.89-3.56c2.3-0.78,4.09-2.08,5.38-3.91
		c1.28-1.82,1.92-3.83,1.92-6.03c0-1.38-0.29-2.71-0.85-3.99c-0.57-1.28-1.36-2.4-2.38-3.38c-1.02-0.98-2.22-1.76-3.59-2.37
		c-1.38-0.6-2.86-0.9-4.45-0.9h-10.48v35.04h2.5V29.65h9.4l11.21,13.66h3.17c-0.9-1.1-1.86-2.26-2.86-3.48
		C198.95,38.61,197.94,37.38,196.92,36.14z M187.01,27.31h-7.98v-16.7h7.98c1.25,0,2.4,0.22,3.46,0.66
		c1.06,0.44,1.98,1.05,2.78,1.81c0.79,0.76,1.41,1.65,1.87,2.66c0.45,1.01,0.68,2.08,0.68,3.22s-0.23,2.21-0.68,3.22
		c-0.45,1.01-1.08,1.89-1.87,2.66c-0.8,0.77-1.72,1.37-2.78,1.81C189.41,27.1,188.25,27.31,187.01,27.31z"/>
	<polygon className="st0" points="203.73,15.79 205.68,15.79 208.22,8.27 205.81,8.27 	"/>
	<path className="st0" d="M226.6,25.76c-1.9-0.88-3.85-1.65-5.78-2.48c-1.13-0.48-2.2-1.06-3.19-1.8c-3.13-2.33-3.06-7.14,0-9.54
		c1.74-1.36,3.72-1.78,5.86-1.41c1.7,0.3,3.17,1.05,4.27,2.43c0.31,0.39,0.56,0.84,0.85,1.29c0.54-0.32,1.09-0.65,1.67-1
		c-0.73-1.64-1.89-2.83-3.41-3.66c-2.1-1.15-4.36-1.46-6.7-1.1c-2.3,0.36-4.22,1.41-5.6,3.33c-1.3,1.82-1.67,3.86-1.44,6.05
		c0.23,2.14,1.22,3.85,2.9,5.19c1.27,1,2.71,1.69,4.18,2.33c1.84,0.8,3.7,1.57,5.5,2.46c1.41,0.69,2.62,1.69,3.34,3.15
		c1.44,2.92,0.67,7.14-3.05,9.2c-1.91,1.06-3.96,1.33-6.09,0.94c-2.23-0.4-4.08-1.46-5.4-3.33c-0.43-0.61-0.73-1.3-1.11-1.97
		c-0.52,0.28-1.08,0.59-1.65,0.9c0.93,2.43,2.47,4.27,4.78,5.44c2.41,1.21,4.96,1.45,7.58,0.94c4.25-0.83,7.81-4.18,7.88-9.05
		c0.03-1.87-0.37-3.64-1.49-5.19C229.51,27.46,228.14,26.47,226.6,25.76z"/>
	<polygon className="st0" points="372.13,11.83 372.13,9.58 352.66,9.58 352.66,44.73 372.13,44.73 372.13,42.48 354.91,42.48 
		354.91,27.43 370.49,27.43 370.49,25.18 354.91,25.18 354.91,11.83 	"/>
	<polygon className="st0" points="254.07,42.89 273.54,42.89 273.54,40.64 256.32,40.64 256.32,25.59 271.9,25.59 271.9,23.35 
		256.32,23.35 256.32,9.99 273.54,9.99 273.54,7.74 254.07,7.74 	"/>
	<path className="st0" d="M305.15,12.93c-3.1-3.28-7.68-5.01-13.25-5.01h-9.2v34.97h9.2c6.67,0,10.8-2.97,13.09-5.47
		c2.82-3.07,4.43-7.13,4.43-11.15v-1.74c0-2.23-0.35-4.34-1.04-6.27C307.66,16.22,306.57,14.43,305.15,12.93z M307.17,26.27
		c0,3.46-1.4,6.97-3.84,9.63c-1.98,2.16-5.58,4.74-11.43,4.74h-6.96V10.16h6.96c2.58,0,4.91,0.4,6.92,1.19
		c1.84,0.72,3.42,1.77,4.7,3.12c2.39,2.53,3.65,6.01,3.65,10.06V26.27z"/>
	<path className="st0" d="M335.93,30.26h7.86v8.47c-1.47,1.07-3.02,1.94-4.66,2.57c-1.89,0.73-3.85,1.09-5.89,1.09
		c-2.3,0-4.46-0.41-6.46-1.25c-2-0.83-3.75-1.95-5.24-3.34c-1.49-1.4-2.66-3.04-3.51-4.94c-0.85-1.89-1.28-3.9-1.28-6.03
		c0-2.16,0.43-4.19,1.28-6.08c0.85-1.89,2.02-3.54,3.51-4.94c1.49-1.4,3.23-2.5,5.24-3.32c2-0.81,4.15-1.22,6.46-1.22
		c1.77,0,3.49,0.25,5.15,0.74c1.66,0.5,3.21,1.22,4.64,2.18l1.98-1.43c-1.85-1.24-3.76-2.19-5.75-2.85
		c-1.98-0.65-3.99-0.98-6.03-0.98c-2.65,0-5.12,0.47-7.42,1.41c-2.3,0.94-4.31,2.21-6.03,3.83c-1.72,1.61-3.07,3.5-4.05,5.67
		c-0.98,2.16-1.47,4.48-1.47,6.96c0,2.45,0.49,4.76,1.47,6.94c0.98,2.18,2.33,4.08,4.05,5.69c1.71,1.61,3.73,2.9,6.03,3.85
		c2.3,0.96,4.78,1.44,7.42,1.44c2.38,0,4.64-0.4,6.79-1.2c2.15-0.8,4.15-1.92,6-3.38V28.01h-10.11V30.26z"/>
</g>
<g>
	<path className="st1" d="M83.47,57.51c-0.49-0.46-1.06-0.83-1.7-1.1C81.13,56.14,80.44,56,79.72,56H74.9v16.85h1.2v-6.6h3.68
		c0.73,0,1.41-0.13,2.05-0.4c0.64-0.26,1.2-0.63,1.67-1.09c0.47-0.46,0.85-1,1.13-1.62c0.28-0.62,0.42-1.29,0.42-2.01
		c0-0.72-0.14-1.38-0.42-2.01C84.35,58.51,83.97,57.97,83.47,57.51z M83.53,62.69c-0.22,0.49-0.51,0.91-0.89,1.26
		c-0.37,0.36-0.8,0.64-1.29,0.86c-0.49,0.21-1.02,0.32-1.58,0.32H76.1v-8h3.65c0.56,0,1.1,0.11,1.59,0.32
		c0.5,0.21,0.93,0.5,1.31,0.86c0.37,0.36,0.67,0.78,0.89,1.27c0.22,0.49,0.33,1.01,0.33,1.57C83.86,61.69,83.75,62.2,83.53,62.69z"
		/>
	<polygon className="st1" points="125.49,62.6 114.05,62.6 114.05,56 112.85,56 112.85,72.85 114.05,72.85 114.05,63.72 125.49,63.72 
		125.49,72.85 126.68,72.85 126.68,56 125.49,56 	"/>
	<path className="st1" d="M152.19,72.88l1.11,0.26l3-6.91h6.43l3.08,6.85l1.12-0.28l-7.38-17.11L152.19,72.88z M156.74,65.28l2.81-6.93
		l2.72,6.93H156.74z"/>
	<path className="st1" d="M202.83,69.4c-0.49-0.6-0.98-1.19-1.47-1.79c-0.49-0.6-0.95-1.17-1.39-1.71c1.11-0.37,1.97-1,2.59-1.88
		c0.62-0.88,0.93-1.84,0.93-2.9c0-0.67-0.14-1.3-0.41-1.92c-0.27-0.61-0.65-1.15-1.14-1.62c-0.49-0.47-1.07-0.85-1.73-1.14
		c-0.66-0.29-1.37-0.43-2.14-0.43h-5.04v16.85h1.2v-6.57h4.52l5.39,6.57h1.52c-0.43-0.53-0.89-1.09-1.37-1.67
		C203.81,70.59,203.32,70,202.83,69.4z M198.07,65.15h-3.84v-8.03h3.84c0.6,0,1.15,0.11,1.66,0.32c0.51,0.21,0.95,0.5,1.34,0.87
		c0.38,0.37,0.68,0.79,0.9,1.28c0.22,0.49,0.32,1,0.32,1.55c0,0.54-0.11,1.06-0.32,1.55c-0.22,0.49-0.52,0.91-0.9,1.28
		c-0.38,0.37-0.83,0.66-1.34,0.87C199.22,65.05,198.67,65.15,198.07,65.15z"/>
	<polygon className="st1" points="231.39,55.69 231.39,72.85 232.59,72.85 232.59,58.84 239.15,66.51 245.69,58.89 245.69,72.85 
		246.88,72.85 246.88,55.69 239.15,64.69 	"/>
	<path className="st1" d="M323.03,71.36c-0.91,0.35-1.85,0.52-2.83,0.52c-1.11,0-2.14-0.2-3.1-0.6c-0.96-0.4-1.8-0.94-2.52-1.61
		c-0.72-0.67-1.28-1.46-1.69-2.37c-0.41-0.91-0.61-1.88-0.61-2.9c0-1.04,0.21-2.01,0.61-2.92c0.41-0.91,0.97-1.7,1.69-2.37
		c0.72-0.67,1.56-1.2,2.52-1.6c0.96-0.39,2-0.59,3.1-0.59c0.85,0,1.68,0.12,2.48,0.36c0.8,0.24,1.54,0.59,2.23,1.05l0.95-0.69
		c-0.89-0.6-1.81-1.05-2.76-1.37c-0.95-0.31-1.92-0.47-2.9-0.47c-1.27,0-2.46,0.23-3.57,0.68c-1.11,0.45-2.07,1.06-2.9,1.84
		c-0.83,0.78-1.48,1.69-1.95,2.72c-0.47,1.04-0.71,2.16-0.71,3.35c0,1.18,0.24,2.29,0.71,3.34c0.47,1.05,1.12,1.96,1.95,2.74
		c0.82,0.78,1.79,1.39,2.9,1.85c1.11,0.46,2.3,0.69,3.57,0.69c1.14,0,2.23-0.19,3.27-0.58c1.04-0.38,2-0.92,2.89-1.62l-0.76-0.92
		C324.79,70.52,323.94,71.01,323.03,71.36z"/>
	<polygon className="st1" points="364.62,55.69 358.52,64.85 352.42,55.69 351.33,56.18 357.9,66.08 357.92,72.85 359.12,72.85 
		359.15,66.08 365.68,56.18 	"/>
	<path className="st1" d="M271.56,72.88l1.11,0.26l3-6.91h6.43l3.08,6.85l1.12-0.28l-7.38-17.11L271.56,72.88z M276.11,65.28l2.81-6.93
		l2.72,6.93H276.11z"/>
</g>
<path className="st0" d="M26.83,23.27v20.05h-5.31V28.58h-5.99L7.88,43.32H1.89l8.07-15.54c-1.83-0.78-3.3-2-4.43-3.67
	c-1.16-1.7-1.73-3.57-1.73-5.63c0-2.8,0.99-5.19,2.98-7.16c1.97-1.99,4.35-2.98,7.14-2.98h12.91v5.31l-5.31-0.01h-7.6
	c-1.32,0-2.45,0.48-3.4,1.42c-0.93,0.94-1.39,2.09-1.39,3.42c0,1.32,0.46,2.45,1.39,3.37c0.95,0.95,2.08,1.42,3.4,1.42h7.6H26.83z"
	/>
<rect x="30.62" y="8.34" className="st2" width="25.31" height="5.3"/>
<rect x="30.62" y="38.02" className="st0" width="25.31" height="5.3"/>
<rect x="30.62" y="23.32" className="st3" width="20.6" height="5.3"/>
<g>
	<path className="st0" d="M70.81,83.6h-4.8v10.26h0.74v-4.68c0-0.16,0.13-0.39,0.61-0.39h3.43c1.61,0,2.93-1.17,2.93-2.59
		C73.73,84.76,72.42,83.59,70.81,83.6z M70.79,88.12H67.3c-0.21,0-0.39,0.02-0.55,0.08v-3.97h4.04c1.2,0,2.18,0.88,2.18,1.94
		C72.97,87.22,71.99,88.09,70.79,88.12z"/>
	<path className="st0" d="M89.07,83.6l-4.05,10.26h0.76l1.27-3.22c0.03-0.05,0.3-0.56,1.17-0.56h2.19c0.44,0,0.8-0.05,1.07-0.17
		l1.56,3.95h0.77L89.75,83.6H89.07z M90.42,89.45h-2.19c-0.28,0-0.52,0.04-0.73,0.11l1.91-4.87l1.82,4.61
		C91.17,89.35,90.97,89.45,90.42,89.45z"/>
	<path className="st0" d="M111.08,88.29c-2.09-0.46-3.36-0.81-3.36-2.11c0-1.21,1.09-1.94,2.87-1.94c1.14,0,2.2,0.33,2.91,1.11
		l0.22,0.24l0.59-0.39l-0.22-0.24c-0.88-0.96-2.15-1.37-3.53-1.37c-2.29,0-3.62,1.02-3.62,2.57c0,0.84,0.43,1.46,1.32,1.94
		c0.72,0.38,1.67,0.59,2.59,0.78c2.07,0.45,3.33,0.81,3.33,2.08c0,1.39-1.26,2.25-3.28,2.25c-2.19,0-3.1-0.78-3.58-1.36l-0.6,0.39
		c1.23,1.38,2.68,1.61,4.21,1.61c2.33,0,4.04-1.08,4.04-2.88C114.97,89.27,113.18,88.74,111.08,88.29z"/>
	<path className="st0" d="M132.71,88.29c-2.09-0.46-3.36-0.81-3.36-2.11c0-1.21,1.09-1.94,2.87-1.94c1.14,0,2.2,0.33,2.92,1.11
		l0.22,0.24l0.59-0.39l-0.22-0.24c-0.87-0.96-2.14-1.37-3.52-1.37c-2.29,0-3.62,1.02-3.62,2.57c0,0.84,0.43,1.46,1.31,1.94
		c0.73,0.38,1.68,0.59,2.6,0.78c2.07,0.45,3.33,0.81,3.33,2.08c0,1.39-1.26,2.25-3.29,2.25c-2.19,0-3.09-0.78-3.58-1.36l-0.59,0.39
		c1.23,1.38,2.68,1.61,4.21,1.61c2.32,0,4.04-1.08,4.04-2.88C136.61,89.27,134.82,88.74,132.71,88.29z"/>
	<rect x="150.97" y="83.6" className="st0" width="0.74" height="10.26"/>
	<path className="st0" d="M171.17,83.6c-2.64,0-4.71,2.34-4.71,5.12c0,2.59,1.87,5.14,4.71,5.14c2.62,0,4.71-2.37,4.71-5.14
		C175.87,86.13,174,83.6,171.17,83.6z M171.17,93.18c-2.19,0-3.97-2-3.97-4.46c0-2.46,1.78-4.46,3.97-4.46c2.19,0,3.97,2,3.97,4.46
		C175.13,91.18,173.36,93.18,171.17,93.18z"/>
	<polygon className="st0" points="196.43,93.18 190.52,83.6 189.74,83.6 189.74,93.86 190.48,93.86 190.48,84.88 196.01,93.86 
		197.18,93.86 197.18,83.6 196.43,83.6 	"/>
	<path className="st0" d="M227.21,93.86h0.74v-4.65c0-0.11,0.03-0.45,0.62-0.45h4.8v-0.65h-4.9c-0.34,0-0.52,0.1-0.52,0.1v-3.96h6.54
		V83.6h-7.28V93.86z"/>
	<path className="st0" d="M251.67,83.6c-2.63,0-4.7,2.34-4.7,5.12c0,2.59,1.87,5.14,4.7,5.14c2.62,0,4.71-2.37,4.71-5.14
		C256.38,86.13,254.51,83.6,251.67,83.6z M251.67,93.18c-2.19,0-3.96-2-3.96-4.46c0-2.46,1.77-4.46,3.96-4.46
		c2.19,0,3.97,2,3.97,4.46C255.64,91.18,253.87,93.18,251.67,93.18z"/>
	<path className="st0" d="M275.34,88.72c1.45-0.28,2.46-1.25,2.46-2.51c0-1.42-1.32-2.6-2.93-2.6h-4.78v10.26h0.74v-4.68
		c0-0.16,0.13-0.39,0.61-0.39h2.61c0.28,0,0.65-0.01,0.93,0.53l2.28,4.54h0.83l-2.4-4.78C275.61,88.95,275.48,88.77,275.34,88.72z
		 M274.86,88.1h-3.49c-0.21,0-0.45,0.02-0.55,0.09v-3.95h4.04c1.2,0,2.18,0.88,2.18,1.94C277.04,87.24,276.07,88.1,274.86,88.1z"/>
	<polygon className="st0" points="308.44,83.6 307.71,83.6 307.71,93.86 314.99,93.86 314.99,93.2 308.44,93.2 	"/>
	<rect x="329.25" y="83.6" className="st0" width="0.74" height="10.26"/>
	<path className="st0" d="M344.05,93.86h0.74v-4.65c0-0.11,0.03-0.45,0.62-0.45h4.8v-0.65h-4.9c-0.34,0-0.52,0.1-0.52,0.1v-3.96h6.54
		V83.6h-7.28V93.86z"/>
	<path className="st0" d="M365.75,93.21v-4.02c0-0.13,0.07-0.42,0.61-0.42h5.55v-0.65h-5.55c-0.34,0-0.45,0.02-0.62,0.09v-3.95h6.17
		V83.6h-6.91v10.26h6.93v-0.65H365.75z"/>
</g>
</svg>
